<?xml version="1.0" standalone="no"?><!DOCTYPE svg PUBLIC "-//W3C//DTD SVG 1.1//EN" "http://www.w3.org/Graphics/SVG/1.1/DTD/svg11.dtd"><svg t="1688027328150" class="icon" viewBox="0 0 1024 1024" version="1.1" xmlns="http://www.w3.org/2000/svg" p-id="1566" width="32" height="32" xmlns:xlink="http://www.w3.org/1999/xlink"><path d="M128 256H64c-35.34 0-64 28.66-64 64v640c0 35.34 28.66 64 64 64h64c35.34 0 64-28.66 64-64V320c0-35.34-28.66-64-64-64z m832 64V154.5c0-16.98-6.74-33.24-18.74-45.26L850.74 18.74c-12-12-28.28-18.74-45.26-18.74H320c-35.34 0-64 28.66-64 64v896c0 35.34 28.66 64 64 64h640c35.34 0 64-28.66 64-64V384c0-35.34-28.66-64-64-64zM576 864c0 17.68-14.32 32-32 32h-64c-17.68 0-32-14.32-32-32v-64c0-17.68 14.32-32 32-32h64c17.68 0 32 14.32 32 32v64z m0-256c0 17.68-14.32 32-32 32h-64c-17.68 0-32-14.32-32-32v-64c0-17.68 14.32-32 32-32h64c17.68 0 32 14.32 32 32v64z m256 256c0 17.68-14.32 32-32 32h-64c-17.68 0-32-14.32-32-32v-64c0-17.68 14.32-32 32-32h64c17.68 0 32 14.32 32 32v64z m0-256c0 17.68-14.32 32-32 32h-64c-17.68 0-32-14.32-32-32v-64c0-17.68 14.32-32 32-32h64c17.68 0 32 14.32 32 32v64z m32-224H352V96h416v64c0 17.68 14.32 32 32 32h64v192z" p-id="1567" fill="#d81e06"></path></svg>