<?xml version="1.0" standalone="no"?><!DOCTYPE svg PUBLIC "-//W3C//DTD SVG 1.1//EN" "http://www.w3.org/Graphics/SVG/1.1/DTD/svg11.dtd"><svg t="1688348785468" class="icon" viewBox="0 0 1024 1024" version="1.1" xmlns="http://www.w3.org/2000/svg" p-id="6811" width="40" height="40" xmlns:xlink="http://www.w3.org/1999/xlink"><path d="M565.76 64L243.2 288H135.68C96.064 288 64 321.408 64 362.688v298.624c0 41.28 32.064 74.688 71.68 74.688H243.2L565.76 960c39.616 0 71.68-33.408 71.68-74.688V138.688C637.44 97.408 605.376 64 565.76 64zM243.2 624c0 20.608-16 37.312-35.84 37.312h-35.84a36.544 36.544 0 0 1-35.84-37.312v-224c0-20.608 16-37.312 35.84-37.312h35.84c19.776 0 35.84 16.704 35.84 37.312v224z m322.56 261.312l-250.88-163.328V302.016l250.88-163.328v746.624z m179.264-630.848v74.624c81.728 17.28 143.296 92.608 143.296 182.912s-61.568 165.632-143.296 182.912v74.624C866.368 751.296 960 643.584 960 512s-93.632-239.296-214.976-257.536z" fill="#1296db" p-id="6812"></path></svg>
